<mxfile host="app.diagrams.net" modified="2024-02-14T11:08:29.171Z" agent="Mozilla/5.0 (Windows NT 10.0; Win64; x64; rv:122.0) Gecko/20100101 Firefox/122.0" etag="sJSRVsxMyoGyxWItwQwo" version="23.1.4" type="device">
  <diagram name="Страница — 1" id="vlllyI-huLbDO7AreBWc">
    <mxGraphModel dx="1390" dy="1306" grid="0" gridSize="10" guides="1" tooltips="1" connect="1" arrows="1" fold="1" page="0" pageScale="1" pageWidth="827" pageHeight="1169" math="0" shadow="0">
      <root>
        <mxCell id="0" />
        <mxCell id="1" parent="0" />
        <mxCell id="QBiYKUWAoqn-8HXCiNlr-2" value="П1(&lt;span style=&quot;font-size:12.0pt;line-height:115%;font-family:&amp;quot;Times New Roman&amp;quot;,serif;&lt;br/&gt;mso-fareast-font-family:&amp;quot;Times New Roman&amp;quot;;mso-ansi-language:EN-US;mso-fareast-language:&lt;br/&gt;RU;mso-bidi-language:AR-SA&quot; lang=&quot;EN-US&quot;&gt;5&lt;/span&gt;&lt;span style=&quot;font-size:12.0pt;line-height:&lt;br/&gt;115%;font-family:&amp;quot;Times New Roman&amp;quot;,serif;mso-fareast-font-family:&amp;quot;Times New Roman&amp;quot;;&lt;br/&gt;mso-ansi-language:RU;mso-fareast-language:RU;mso-bidi-language:AR-SA&quot;&gt;, Ф1)&lt;/span&gt;" style="strokeWidth=2;html=1;shape=mxgraph.flowchart.terminator;whiteSpace=wrap;fontSize=16;" parent="1" vertex="1">
          <mxGeometry x="-434" y="-151" width="148" height="63" as="geometry" />
        </mxCell>
        <mxCell id="QBiYKUWAoqn-8HXCiNlr-3" value="" style="endArrow=classic;html=1;rounded=0;fontSize=12;startSize=8;endSize=8;curved=1;exitX=0.5;exitY=1;exitDx=0;exitDy=0;exitPerimeter=0;entryX=0.5;entryY=0;entryDx=0;entryDy=0;" parent="1" source="QBiYKUWAoqn-8HXCiNlr-2" target="QBiYKUWAoqn-8HXCiNlr-4" edge="1">
          <mxGeometry width="50" height="50" relative="1" as="geometry">
            <mxPoint x="-398" y="225" as="sourcePoint" />
            <mxPoint x="-362" y="-33" as="targetPoint" />
          </mxGeometry>
        </mxCell>
        <mxCell id="QBiYKUWAoqn-8HXCiNlr-4" value="Д1" style="ellipse;whiteSpace=wrap;html=1;aspect=fixed;fontSize=16;" parent="1" vertex="1">
          <mxGeometry x="-376.5" y="-60" width="33" height="33" as="geometry" />
        </mxCell>
        <mxCell id="QBiYKUWAoqn-8HXCiNlr-5" value="" style="endArrow=classic;html=1;rounded=0;fontSize=12;startSize=8;endSize=8;curved=1;exitX=0;exitY=0.5;exitDx=0;exitDy=0;entryX=1;entryY=0.5;entryDx=0;entryDy=0;entryPerimeter=0;" parent="1" source="QBiYKUWAoqn-8HXCiNlr-4" target="QBiYKUWAoqn-8HXCiNlr-8" edge="1">
          <mxGeometry width="50" height="50" relative="1" as="geometry">
            <mxPoint x="-398" y="225" as="sourcePoint" />
            <mxPoint x="-434" y="-39" as="targetPoint" />
          </mxGeometry>
        </mxCell>
        <mxCell id="QBiYKUWAoqn-8HXCiNlr-6" value="" style="endArrow=classic;html=1;rounded=0;fontSize=12;startSize=8;endSize=8;curved=1;exitX=1;exitY=0.5;exitDx=0;exitDy=0;entryX=0;entryY=0.5;entryDx=0;entryDy=0;entryPerimeter=0;" parent="1" source="QBiYKUWAoqn-8HXCiNlr-4" target="QBiYKUWAoqn-8HXCiNlr-11" edge="1">
          <mxGeometry width="50" height="50" relative="1" as="geometry">
            <mxPoint x="-366" y="-33" as="sourcePoint" />
            <mxPoint x="-260" y="-43.5" as="targetPoint" />
          </mxGeometry>
        </mxCell>
        <mxCell id="QBiYKUWAoqn-8HXCiNlr-8" value="П2(&lt;span style=&quot;font-size:12.0pt;line-height:115%;font-family:&amp;quot;Times New Roman&amp;quot;,serif;&lt;br/&gt;mso-fareast-font-family:&amp;quot;Times New Roman&amp;quot;;mso-ansi-language:EN-US;mso-fareast-language:&lt;br/&gt;RU;mso-bidi-language:AR-SA&quot; lang=&quot;EN-US&quot;&gt;4&lt;/span&gt;&lt;span style=&quot;font-size:12.0pt;line-height:&lt;br/&gt;115%;font-family:&amp;quot;Times New Roman&amp;quot;,serif;mso-fareast-font-family:&amp;quot;Times New Roman&amp;quot;;&lt;br/&gt;mso-ansi-language:RU;mso-fareast-language:RU;mso-bidi-language:AR-SA&quot;&gt;, Д1 и&lt;br/&gt;Ф2)&lt;/span&gt;" style="strokeWidth=2;html=1;shape=mxgraph.flowchart.terminator;whiteSpace=wrap;fontSize=16;" parent="1" vertex="1">
          <mxGeometry x="-590" y="-70" width="134" height="53" as="geometry" />
        </mxCell>
        <mxCell id="QBiYKUWAoqn-8HXCiNlr-11" value="П3(&lt;span style=&quot;font-size:12.0pt;line-height:115%;font-family:&amp;quot;Times New Roman&amp;quot;,serif;&lt;br/&gt;mso-fareast-font-family:&amp;quot;Times New Roman&amp;quot;;mso-ansi-language:EN-US;mso-fareast-language:&lt;br/&gt;RU;mso-bidi-language:AR-SA&quot; lang=&quot;EN-US&quot;&gt;4&lt;/span&gt;&lt;span style=&quot;font-size:12.0pt;line-height:&lt;br/&gt;115%;font-family:&amp;quot;Times New Roman&amp;quot;,serif;mso-fareast-font-family:&amp;quot;Times New Roman&amp;quot;;&lt;br/&gt;mso-ansi-language:RU;mso-fareast-language:RU;mso-bidi-language:AR-SA&quot;&gt;, Д1 и не&lt;br/&gt;Ф2)&lt;/span&gt;" style="strokeWidth=2;html=1;shape=mxgraph.flowchart.terminator;whiteSpace=wrap;fontSize=16;" parent="1" vertex="1">
          <mxGeometry x="-271" y="-70" width="134" height="53" as="geometry" />
        </mxCell>
        <mxCell id="QBiYKUWAoqn-8HXCiNlr-12" value="Д3" style="ellipse;whiteSpace=wrap;html=1;aspect=fixed;fontSize=16;" parent="1" vertex="1">
          <mxGeometry x="-220.5" y="21" width="33" height="33" as="geometry" />
        </mxCell>
        <mxCell id="QBiYKUWAoqn-8HXCiNlr-13" value="Д2" style="ellipse;whiteSpace=wrap;html=1;aspect=fixed;fontSize=16;" parent="1" vertex="1">
          <mxGeometry x="-539.5" y="21" width="33" height="33" as="geometry" />
        </mxCell>
        <mxCell id="QBiYKUWAoqn-8HXCiNlr-15" value="" style="endArrow=classic;html=1;rounded=0;fontSize=12;startSize=8;endSize=8;curved=1;exitX=0.5;exitY=1;exitDx=0;exitDy=0;exitPerimeter=0;entryX=0.5;entryY=0;entryDx=0;entryDy=0;" parent="1" source="QBiYKUWAoqn-8HXCiNlr-8" target="QBiYKUWAoqn-8HXCiNlr-13" edge="1">
          <mxGeometry width="50" height="50" relative="1" as="geometry">
            <mxPoint x="-398" y="225" as="sourcePoint" />
            <mxPoint x="-348" y="175" as="targetPoint" />
          </mxGeometry>
        </mxCell>
        <mxCell id="QBiYKUWAoqn-8HXCiNlr-16" value="" style="endArrow=classic;html=1;rounded=0;fontSize=12;startSize=8;endSize=8;curved=1;exitX=0.5;exitY=1;exitDx=0;exitDy=0;exitPerimeter=0;entryX=0.5;entryY=0;entryDx=0;entryDy=0;" parent="1" source="QBiYKUWAoqn-8HXCiNlr-11" target="QBiYKUWAoqn-8HXCiNlr-12" edge="1">
          <mxGeometry width="50" height="50" relative="1" as="geometry">
            <mxPoint x="-398" y="225" as="sourcePoint" />
            <mxPoint x="-348" y="175" as="targetPoint" />
          </mxGeometry>
        </mxCell>
        <mxCell id="QBiYKUWAoqn-8HXCiNlr-17" value="&lt;p style=&quot;mso-margin-top-alt:auto;mso-margin-bottom-alt:auto;&lt;br/&gt;mso-add-space:auto;line-height:normal&quot; class=&quot;MsoNormal&quot;&gt;П4(&lt;span style=&quot;font-size:12.0pt;&lt;br/&gt;font-family:&amp;quot;Times New Roman&amp;quot;,serif;mso-fareast-font-family:&amp;quot;Times New Roman&amp;quot;;&lt;br/&gt;mso-ansi-language:EN-US;mso-fareast-language:RU&quot; lang=&quot;EN-US&quot;&gt;3&lt;/span&gt;&lt;span style=&quot;font-size:12.0pt;font-family:&amp;quot;Times New Roman&amp;quot;,serif;mso-fareast-font-family:&lt;br/&gt;&amp;quot;Times New Roman&amp;quot;;mso-fareast-language:RU&quot;&gt;, Д2 и Ф3)=Д4&lt;/span&gt;&lt;/p&gt;" style="strokeWidth=2;html=1;shape=mxgraph.flowchart.terminator;whiteSpace=wrap;fontSize=16;" parent="1" vertex="1">
          <mxGeometry x="-292.5" y="100" width="177" height="53" as="geometry" />
        </mxCell>
        <mxCell id="QBiYKUWAoqn-8HXCiNlr-18" value="" style="endArrow=classic;html=1;rounded=0;fontSize=12;startSize=8;endSize=8;curved=1;exitX=0.5;exitY=1;exitDx=0;exitDy=0;entryX=0.5;entryY=0;entryDx=0;entryDy=0;entryPerimeter=0;" parent="1" source="QBiYKUWAoqn-8HXCiNlr-12" target="QBiYKUWAoqn-8HXCiNlr-17" edge="1">
          <mxGeometry width="50" height="50" relative="1" as="geometry">
            <mxPoint x="-398" y="325" as="sourcePoint" />
            <mxPoint x="-348" y="275" as="targetPoint" />
          </mxGeometry>
        </mxCell>
        <mxCell id="QBiYKUWAoqn-8HXCiNlr-19" value="Д4" style="ellipse;whiteSpace=wrap;html=1;aspect=fixed;fontSize=16;" parent="1" vertex="1">
          <mxGeometry x="-220.5" y="199" width="33" height="33" as="geometry" />
        </mxCell>
        <mxCell id="QBiYKUWAoqn-8HXCiNlr-20" value="" style="endArrow=classic;html=1;rounded=0;fontSize=12;startSize=8;endSize=8;curved=1;exitX=0.5;exitY=1;exitDx=0;exitDy=0;exitPerimeter=0;entryX=0.5;entryY=0;entryDx=0;entryDy=0;" parent="1" source="QBiYKUWAoqn-8HXCiNlr-17" target="QBiYKUWAoqn-8HXCiNlr-19" edge="1">
          <mxGeometry width="50" height="50" relative="1" as="geometry">
            <mxPoint x="-200.5" y="186" as="sourcePoint" />
            <mxPoint x="-344.5" y="378" as="targetPoint" />
          </mxGeometry>
        </mxCell>
        <mxCell id="QBiYKUWAoqn-8HXCiNlr-22" value="П5(&lt;span style=&quot;font-size:12.0pt;line-height:115%;font-family:&amp;quot;Times New Roman&amp;quot;,serif;&lt;br/&gt;mso-fareast-font-family:&amp;quot;Times New Roman&amp;quot;;mso-ansi-language:EN-US;mso-fareast-language:&lt;br/&gt;RU;mso-bidi-language:AR-SA&quot; lang=&quot;EN-US&quot;&gt;3&lt;/span&gt;&lt;span style=&quot;font-size:12.0pt;line-height:&lt;br/&gt;115%;font-family:&amp;quot;Times New Roman&amp;quot;,serif;mso-fareast-font-family:&amp;quot;Times New Roman&amp;quot;;&lt;br/&gt;mso-ansi-language:RU;mso-fareast-language:RU;mso-bidi-language:AR-SA&quot;&gt;, Д3 и Ф4)&lt;/span&gt;" style="strokeWidth=2;html=1;shape=mxgraph.flowchart.terminator;whiteSpace=wrap;fontSize=16;" parent="1" vertex="1">
          <mxGeometry x="-590" y="100" width="134" height="53" as="geometry" />
        </mxCell>
        <mxCell id="QBiYKUWAoqn-8HXCiNlr-23" value="" style="endArrow=classic;html=1;rounded=0;fontSize=12;startSize=8;endSize=8;curved=1;exitX=0.5;exitY=1;exitDx=0;exitDy=0;entryX=0.5;entryY=0;entryDx=0;entryDy=0;entryPerimeter=0;" parent="1" source="QBiYKUWAoqn-8HXCiNlr-13" target="QBiYKUWAoqn-8HXCiNlr-22" edge="1">
          <mxGeometry width="50" height="50" relative="1" as="geometry">
            <mxPoint x="-519" y="78" as="sourcePoint" />
            <mxPoint x="-663" y="299" as="targetPoint" />
          </mxGeometry>
        </mxCell>
        <mxCell id="QBiYKUWAoqn-8HXCiNlr-24" value="Д5" style="ellipse;whiteSpace=wrap;html=1;aspect=fixed;fontSize=16;" parent="1" vertex="1">
          <mxGeometry x="-539.5" y="199" width="33" height="33" as="geometry" />
        </mxCell>
        <mxCell id="QBiYKUWAoqn-8HXCiNlr-25" value="" style="endArrow=classic;html=1;rounded=0;fontSize=12;startSize=8;endSize=8;curved=1;exitX=0.5;exitY=1;exitDx=0;exitDy=0;exitPerimeter=0;entryX=0.5;entryY=0;entryDx=0;entryDy=0;" parent="1" source="QBiYKUWAoqn-8HXCiNlr-22" target="QBiYKUWAoqn-8HXCiNlr-24" edge="1">
          <mxGeometry width="50" height="50" relative="1" as="geometry">
            <mxPoint x="-515.5" y="210" as="sourcePoint" />
            <mxPoint x="-659.5" y="402" as="targetPoint" />
          </mxGeometry>
        </mxCell>
        <mxCell id="QBiYKUWAoqn-8HXCiNlr-27" value="П7(&lt;span style=&quot;font-size:12.0pt;line-height:115%;font-family:&amp;quot;Times New Roman&amp;quot;,serif;&lt;br/&gt;mso-fareast-font-family:&amp;quot;Times New Roman&amp;quot;;mso-ansi-language:EN-US;mso-fareast-language:&lt;br/&gt;RU;mso-bidi-language:AR-SA&quot; lang=&quot;EN-US&quot;&gt;1&lt;/span&gt;&lt;span style=&quot;font-size:12.0pt;line-height:&lt;br/&gt;115%;font-family:&amp;quot;Times New Roman&amp;quot;,serif;mso-fareast-font-family:&amp;quot;Times New Roman&amp;quot;;&lt;br/&gt;mso-ansi-language:RU;mso-fareast-language:RU;mso-bidi-language:AR-SA&quot;&gt;, Д4)&lt;/span&gt;" style="strokeWidth=2;html=1;shape=mxgraph.flowchart.terminator;whiteSpace=wrap;fontSize=16;" parent="1" vertex="1">
          <mxGeometry x="-273" y="453" width="134" height="53" as="geometry" />
        </mxCell>
        <mxCell id="QBiYKUWAoqn-8HXCiNlr-29" value="Д7" style="ellipse;whiteSpace=wrap;html=1;aspect=fixed;fontSize=16;" parent="1" vertex="1">
          <mxGeometry x="-222.5" y="554" width="33" height="33" as="geometry" />
        </mxCell>
        <mxCell id="QBiYKUWAoqn-8HXCiNlr-30" value="" style="endArrow=classic;html=1;rounded=0;fontSize=12;startSize=8;endSize=8;curved=1;exitX=0.5;exitY=1;exitDx=0;exitDy=0;exitPerimeter=0;entryX=0.5;entryY=0;entryDx=0;entryDy=0;" parent="1" source="QBiYKUWAoqn-8HXCiNlr-27" target="QBiYKUWAoqn-8HXCiNlr-29" edge="1">
          <mxGeometry width="50" height="50" relative="1" as="geometry">
            <mxPoint x="-261.5" y="644" as="sourcePoint" />
            <mxPoint x="-405.5" y="836" as="targetPoint" />
          </mxGeometry>
        </mxCell>
        <mxCell id="3S-KKPHJY4kcZVB2dEEb-3" style="edgeStyle=orthogonalEdgeStyle;rounded=0;orthogonalLoop=1;jettySize=auto;html=1;exitX=0.5;exitY=1;exitDx=0;exitDy=0;exitPerimeter=0;entryX=0.5;entryY=0;entryDx=0;entryDy=0;" edge="1" parent="1" source="QBiYKUWAoqn-8HXCiNlr-32" target="QBiYKUWAoqn-8HXCiNlr-34">
          <mxGeometry relative="1" as="geometry" />
        </mxCell>
        <mxCell id="QBiYKUWAoqn-8HXCiNlr-32" value="П6(&lt;span style=&quot;font-size:12.0pt;line-height:115%;font-family:&amp;quot;Times New Roman&amp;quot;,serif;&lt;br/&gt;mso-fareast-font-family:&amp;quot;Times New Roman&amp;quot;;mso-ansi-language:EN-US;mso-fareast-language:&lt;br/&gt;RU;mso-bidi-language:AR-SA&quot; lang=&quot;EN-US&quot;&gt;2&lt;/span&gt;&lt;span style=&quot;font-size:12.0pt;line-height:&lt;br/&gt;115%;font-family:&amp;quot;Times New Roman&amp;quot;,serif;mso-fareast-font-family:&amp;quot;Times New Roman&amp;quot;;&lt;br/&gt;mso-ansi-language:RU;mso-fareast-language:RU;mso-bidi-language:AR-SA&quot;&gt;, Ф5 и (Д4&lt;br/&gt;или Д5))&lt;/span&gt;" style="strokeWidth=2;html=1;shape=mxgraph.flowchart.terminator;whiteSpace=wrap;fontSize=16;" parent="1" vertex="1">
          <mxGeometry x="-491" y="284" width="256" height="53" as="geometry" />
        </mxCell>
        <mxCell id="QBiYKUWAoqn-8HXCiNlr-34" value="Д6" style="ellipse;whiteSpace=wrap;html=1;aspect=fixed;fontSize=16;" parent="1" vertex="1">
          <mxGeometry x="-379.5" y="395" width="33" height="33" as="geometry" />
        </mxCell>
        <mxCell id="QBiYKUWAoqn-8HXCiNlr-37" value="П8(&lt;span style=&quot;font-size:12.0pt;line-height:115%;font-family:&amp;quot;Times New Roman&amp;quot;,serif;&lt;br/&gt;mso-fareast-font-family:&amp;quot;Times New Roman&amp;quot;;mso-ansi-language:EN-US;mso-fareast-language:&lt;br/&gt;RU;mso-bidi-language:AR-SA&quot; lang=&quot;EN-US&quot;&gt;1&lt;/span&gt;&lt;span style=&quot;font-size:12.0pt;line-height:&lt;br/&gt;115%;font-family:&amp;quot;Times New Roman&amp;quot;,serif;mso-fareast-font-family:&amp;quot;Times New Roman&amp;quot;;&lt;br/&gt;mso-ansi-language:RU;mso-fareast-language:RU;mso-bidi-language:AR-SA&quot;&gt;, Д5)&lt;/span&gt;" style="strokeWidth=2;html=1;shape=mxgraph.flowchart.terminator;whiteSpace=wrap;fontSize=16;" parent="1" vertex="1">
          <mxGeometry x="-590" y="453" width="134" height="53" as="geometry" />
        </mxCell>
        <mxCell id="QBiYKUWAoqn-8HXCiNlr-47" value="Д8" style="ellipse;whiteSpace=wrap;html=1;aspect=fixed;fontSize=16;" parent="1" vertex="1">
          <mxGeometry x="-539.5" y="554" width="33" height="33" as="geometry" />
        </mxCell>
        <mxCell id="QBiYKUWAoqn-8HXCiNlr-48" value="" style="endArrow=classic;html=1;rounded=0;fontSize=12;startSize=8;endSize=8;curved=1;exitX=0.5;exitY=1;exitDx=0;exitDy=0;exitPerimeter=0;entryX=0.5;entryY=0;entryDx=0;entryDy=0;" parent="1" source="QBiYKUWAoqn-8HXCiNlr-37" target="QBiYKUWAoqn-8HXCiNlr-47" edge="1">
          <mxGeometry width="50" height="50" relative="1" as="geometry">
            <mxPoint x="-357" y="316" as="sourcePoint" />
            <mxPoint x="-357" y="370" as="targetPoint" />
          </mxGeometry>
        </mxCell>
        <mxCell id="3S-KKPHJY4kcZVB2dEEb-1" style="edgeStyle=orthogonalEdgeStyle;rounded=0;orthogonalLoop=1;jettySize=auto;html=1;entryX=0;entryY=0.5;entryDx=0;entryDy=0;entryPerimeter=0;" edge="1" parent="1" source="QBiYKUWAoqn-8HXCiNlr-24" target="QBiYKUWAoqn-8HXCiNlr-32">
          <mxGeometry relative="1" as="geometry">
            <Array as="points">
              <mxPoint x="-523" y="311" />
            </Array>
          </mxGeometry>
        </mxCell>
        <mxCell id="3S-KKPHJY4kcZVB2dEEb-2" style="edgeStyle=orthogonalEdgeStyle;rounded=0;orthogonalLoop=1;jettySize=auto;html=1;exitX=0.5;exitY=1;exitDx=0;exitDy=0;entryX=1;entryY=0.5;entryDx=0;entryDy=0;entryPerimeter=0;" edge="1" parent="1" source="QBiYKUWAoqn-8HXCiNlr-19" target="QBiYKUWAoqn-8HXCiNlr-32">
          <mxGeometry relative="1" as="geometry" />
        </mxCell>
        <mxCell id="3S-KKPHJY4kcZVB2dEEb-4" style="edgeStyle=orthogonalEdgeStyle;rounded=0;orthogonalLoop=1;jettySize=auto;html=1;exitX=1;exitY=0.5;exitDx=0;exitDy=0;entryX=0.5;entryY=0;entryDx=0;entryDy=0;entryPerimeter=0;" edge="1" parent="1" source="QBiYKUWAoqn-8HXCiNlr-34" target="QBiYKUWAoqn-8HXCiNlr-27">
          <mxGeometry relative="1" as="geometry" />
        </mxCell>
        <mxCell id="3S-KKPHJY4kcZVB2dEEb-5" style="edgeStyle=orthogonalEdgeStyle;rounded=0;orthogonalLoop=1;jettySize=auto;html=1;exitX=0;exitY=0.5;exitDx=0;exitDy=0;entryX=0.5;entryY=0;entryDx=0;entryDy=0;entryPerimeter=0;" edge="1" parent="1" source="QBiYKUWAoqn-8HXCiNlr-34" target="QBiYKUWAoqn-8HXCiNlr-37">
          <mxGeometry relative="1" as="geometry" />
        </mxCell>
      </root>
    </mxGraphModel>
  </diagram>
</mxfile>
